<svg  xmlns="http://www.w3.org/2000/svg" xmlns:xlink="http://www.w3.org/1999/xlink" width="966" height="300" viewBox="0 0 990 324"><path transform="translate(0 100)" d="M50.4883,12.0117Q48.0957,12.0117 46.4355,10.5469Q44.7754,9.08203 44.7754,7.32422Q45.4102,3.07617 45.4102,0.390625L45.5078,-24.8047L25,-23.877L25.1953,-21.4844Q25.1953,-18.7012 22.7051,-18.7012Q21.3867,-18.7012 19.2383,-19.7021Q17.0898,-20.7031 17.0898,-23.1934L17.0898,-24.0234Q17.2852,-25.5859 17.2852,-27.002L15.2832,-51.5137Q15.0879,-54.4922 13.9404,-56.3477Q12.793,-58.2031 12.793,-59.082Q12.793,-60.4004 14.7949,-60.4004Q16.3086,-60.4004 21.582,-58.3008L45.7031,-59.8145L45.8008,-76.416Q45.8008,-78.418 45.0439,-79.8584Q44.2871,-81.2988 44.2871,-82.0801Q44.2871,-83.3984 45.7031,-83.3984Q46.4844,-83.3984 48.1934,-83.1055Q53.6133,-82.0801 53.6133,-78.8086L53.5156,-60.2051L82.0801,-61.9141Q85.9863,-61.9141 87.207,-58.7891Q87.5977,-57.7148 87.5977,-57.0801Q87.5977,-56.2988 87.207,-55.6396Q86.8164,-54.9805 83.8867,-33.1055Q86.6699,-29.8828 86.6699,-28.6133Q86.6699,-27.002 85.2783,-26.7578Q83.8867,-26.5137 53.2715,-25.0977L53.0762,8.88672Q53.0762,12.0117 50.4883,12.0117ZM53.2715,-32.0801L76.6113,-33.2031L78.8086,-54.5898L53.5156,-53.0762L53.2715,-32.0801ZM24.4141,-30.8105L45.6055,-31.7871L45.7031,-52.6855L22.7051,-51.3184L24.4141,-30.8105Z"></path><path transform="translate(100 100)" d="M89.6973,9.42383Q89.0625,9.42383 88.4766,9.08203Q67.5781,-0.78125 50.3906,-17.6758Q39.1602,-6.00586 23.7793,1.9043Q17.2852,5.32227 12.7441,6.95801Q8.20312,8.59375 6.78711,8.59375Q4.88281,8.59375 4.88281,7.2998Q4.88281,6.00586 7.08008,4.88281Q32.666,-8.88672 45.166,-23.0957Q35.9863,-33.7891 26.6602,-52.8809L18.6035,-52.3926Q16.6992,-52.1973 15.0879,-52.1973Q13.3789,-52.1973 12.0605,-52.7832Q10.2051,-53.7109 8.78906,-56.7871Q8.69141,-57.3242 8.49609,-57.666Q8.30078,-58.0078 8.30078,-58.4961Q8.30078,-59.8145 9.76562,-59.8145Q12.3047,-59.2773 14.8926,-59.2773Q16.1621,-59.2773 45.7031,-61.084L45.6055,-72.998Q45.6055,-75.0977 44.7998,-76.2451Q43.9941,-77.3926 43.9941,-78.3203Q43.9941,-79.5898 46.4844,-79.5898Q48.3887,-79.5898 50.9766,-78.6865Q53.5645,-77.7832 53.5645,-76.123L53.4668,-61.5234Q84.082,-63.3789 85.376,-63.7451Q86.6699,-64.1113 87.6953,-64.1113Q88.7695,-64.1113 90.2344,-63.0615Q91.6992,-62.0117 92.749,-60.8154Q93.7988,-59.6191 93.7988,-58.7891Q93.7988,-56.8848 91.2598,-56.5918L73.3887,-55.5176Q70.2637,-47.3145 65.332,-38.5498Q60.4004,-29.7852 55.3711,-23.4863Q73.1934,-6.49414 94.4824,2.00195Q96.2891,2.68555 96.2891,3.61328Q96.2891,4.39453 95.166,5.9082Q92.2852,9.42383 89.6973,9.42383ZM50.0977,-28.9062Q59.1797,-40.8203 63.9648,-54.9805L34.668,-53.418Q42.0898,-37.9883 50.0977,-28.9062Z"></path><path transform="translate(200 100)" d="M81.0059,9.7168Q76.709,9.7168 67.7246,1.80664Q62.793,-2.49023 62.793,-4.19922Q62.793,-5.51758 64.3066,-5.51758Q65.2832,-5.51758 69.9951,-3.24707Q74.707,-0.976562 78.125,-0.195312L78.7109,-67.1875L21.4844,-63.623L21.4844,6.00586Q21.4844,9.27734 18.8965,9.27734Q18.7012,9.27734 17.3096,8.88672Q15.918,8.49609 14.5508,7.2998Q13.1836,6.10352 13.1836,4.39453Q13.1836,2.97852 13.5498,1.34277Q13.916,-0.292969 14.0137,-63.916Q14.0137,-67.4805 13.208,-68.8477Q12.4023,-70.2148 12.4023,-71.2891Q12.4023,-72.7051 14.502,-72.7051Q16.0156,-72.7051 21.2891,-70.4102L80.4199,-74.2188Q86.8164,-74.2188 86.8164,-69.8242L86.2793,-67.9199L85.5957,0.390625L85.8887,4.10156Q85.8887,6.20117 84.3506,7.95898Q82.8125,9.7168 81.0059,9.7168ZM43.5059,-0.390625Q41.8945,-0.390625 41.8945,-1.80664Q41.8945,-3.07617 43.4082,-5.07812Q53.3203,-17.3828 58.8867,-35.6934Q53.418,-43.3105 50.708,-46.4111Q47.998,-49.5117 47.998,-50.415Q47.998,-51.3184 49.3408,-52.5146Q50.6836,-53.7109 51.4893,-53.7109Q52.2949,-53.7109 53.9062,-52.3438Q55.5176,-50.9766 61.1816,-43.7988Q62.9883,-51.416 63.623,-59.082Q63.623,-60.6934 63.3545,-61.4502Q63.0859,-62.207 63.0859,-62.793Q63.0859,-63.916 64.3066,-63.916Q64.8926,-63.916 66.4062,-63.4766Q71.0938,-62.207 71.0938,-59.7168Q71.0938,-56.4941 69.6045,-49.3896Q68.1152,-42.2852 66.3086,-37.1094Q76.9043,-22.9004 76.9043,-20.8008Q76.9043,-19.4824 75.415,-18.1396Q73.9258,-16.7969 72.6074,-16.7969Q71.1914,-16.7969 69.9219,-18.9941Q68.4082,-22.0215 63.3789,-29.2969Q60.2051,-21.1914 56.0059,-14.502Q51.8066,-7.8125 48.3154,-4.10156Q44.8242,-0.390625 43.5059,-0.390625ZM23.6816,-6.5918Q22.2168,-6.5918 22.2168,-8.10547Q22.2168,-9.17969 23.291,-10.8887Q29.8828,-20.6055 34.9121,-34.5215Q30.4199,-41.6016 25.8789,-47.1191Q25.5859,-47.6074 25.293,-48.0469Q25,-48.4863 25,-49.3896Q25,-50.293 26.3916,-51.3428Q27.7832,-52.3926 28.6133,-52.3926Q30.5176,-52.3926 37.4023,-42.2852Q39.502,-49.3164 40.4785,-57.7148Q40.4785,-59.082 40.1855,-60.0342Q39.8926,-60.9863 39.8926,-61.2793Q39.8926,-62.5977 41.5039,-62.5977Q42.4805,-62.5977 43.8965,-62.207Q47.7051,-60.9863 47.7051,-57.9102Q45.9961,-46.4844 41.9922,-35.498Q50.6836,-22.7051 50.6836,-21.1914Q50.6836,-19.4824 49.1455,-18.1885Q47.6074,-16.8945 46.3867,-16.8945Q45.0195,-16.8945 43.7988,-19.2871Q41.6016,-23.4863 38.916,-27.9785Q34.082,-16.9922 27.5879,-9.81445Q24.8047,-6.5918 23.6816,-6.5918Z"></path><path transform="translate(300 100)" d="M14.1113,-44.5801Q13.7207,-44.5801 12.5,-45.0195Q8.98438,-46.4844 8.98438,-48.584Q8.98438,-49.0234 11.8408,-54.5166Q14.6973,-60.0098 18.1152,-70.1172Q18.8965,-72.5098 20.7031,-72.5098Q21.3867,-72.5098 22.5098,-72.2168Q25.293,-71.0938 25.293,-69.3848Q25.293,-68.7988 24.707,-66.9922L45.9961,-68.2129L45.8984,-75.5859Q45.8984,-77.2949 44.8975,-78.7354Q43.8965,-80.1758 43.8965,-80.8105Q43.8965,-82.1777 45.8008,-82.1777Q47.1191,-82.1777 49.1211,-81.6895Q53.8086,-80.5176 53.8086,-78.2227L53.6133,-68.6035L86.6211,-70.5078Q89.6973,-70.5078 91.2598,-69.165Q92.8223,-67.8223 92.8223,-66.6016Q92.8223,-65.2832 92.0654,-64.6484Q91.3086,-64.0137 91.0645,-63.5986Q90.8203,-63.1836 89.8926,-61.7188Q81.2012,-48.4863 78.3203,-48.4863Q76.9043,-48.4863 76.9043,-50.0977Q76.9043,-51.2207 78.9551,-54.7607Q81.0059,-58.3008 82.7148,-63.4766L22.3145,-60.2051Q16.3086,-44.5801 14.1113,-44.5801ZM50.3906,10.6934Q49.2188,10.6934 44.9707,8.54492Q40.7227,6.39648 34.7656,1.66016Q28.8086,-3.07617 28.8086,-4.6875Q28.8086,-5.81055 30.2246,-5.81055Q31.1035,-5.81055 33.2031,-4.78516Q40.2832,-1.2207 44.6045,0.195312Q48.9258,1.61133 49.1211,1.61133Q49.0234,1.61133 49.0234,1.31836Q49.0234,0.78125 49.3652,-1.31836Q49.707,-3.41797 49.707,-9.61914Q49.707,-15.5762 48.8281,-20.8984L12.0117,-19.3848Q9.7168,-19.3848 8.69141,-20.6055Q6.00586,-24.3164 6.00586,-25.3906Q6.00586,-26.9043 6.98242,-26.9043Q7.51953,-26.9043 8.66699,-26.5625Q9.81445,-26.2207 12.0117,-26.2207L47.1191,-27.7832Q46.1914,-30.9082 44.9951,-33.252Q43.7988,-35.5957 43.7988,-36.7188Q43.7988,-37.9883 45.1416,-38.7451Q46.4844,-39.502 48.0957,-39.502Q49.8047,-39.502 50.9277,-37.3047Q59.3262,-43.0176 62.4023,-46.6797Q31.8848,-44.1895 30.8105,-44.1895Q28.9062,-44.1895 27.5146,-45.6055Q26.123,-47.0215 25.415,-48.5107Q24.707,-50 24.707,-50.4883Q24.707,-51.8066 26.0254,-51.8066L29.8828,-51.2207Q31.7871,-51.2207 49.4873,-52.6123Q67.1875,-54.0039 67.627,-54.0039Q71.3867,-54.0039 73.4863,-51.2207Q74.4141,-50 74.4141,-49.0234Q74.4141,-47.9004 73.3154,-47.0947Q72.2168,-46.2891 71.7285,-45.8984Q62.5,-36.6211 53.8086,-30.9082L54.6875,-28.0762L83.3984,-29.3945Q86.5234,-29.6875 87.4756,-30.0537Q88.4277,-30.4199 89.0137,-30.4199Q89.6973,-30.4199 91.2109,-29.4922Q95.3125,-26.9043 95.3125,-24.8047Q95.3125,-22.998 92.0898,-22.8027L56.2988,-21.1914Q57.2266,-15.8203 57.2266,-7.51953Q57.2266,10.6934 50.3906,10.6934Z"></path><path transform="translate(400 100)" d="M33.5938,-56.0059Q32.0801,-56.0059 29.9805,-58.6914Q24.5117,-65.7227 18.4082,-71.0938Q16.9922,-72.3145 16.9922,-73.291Q16.9922,-74.1211 17.9932,-75.5127Q18.9941,-76.9043 20.4102,-76.9043Q21.582,-76.9043 23.584,-75.3906Q25.5859,-73.877 28.1006,-71.6797Q30.6152,-69.4824 32.9102,-67.1875Q35.2051,-64.8926 36.8408,-63.0371Q38.4766,-61.1816 38.4766,-60.1074Q38.4766,-58.8867 36.7432,-57.4463Q35.0098,-56.0059 33.5938,-56.0059ZM68.2129,10.4004Q67.9199,10.4004 66.4551,9.91211Q64.9902,9.42383 63.5986,8.20312Q62.207,6.98242 62.207,5.51758Q62.207,4.19922 62.6465,2.39258Q63.0859,0.585938 63.0859,-2.09961L63.1836,-42.3828L48.584,-41.6016Q48.0957,-41.5039 46.875,-41.5039Q43.5059,-41.5039 41.4551,-42.8467Q39.4043,-44.1895 38.8184,-48.291Q38.8184,-49.4141 39.6973,-49.4141Q39.9902,-49.4141 41.04,-48.9502Q42.0898,-48.4863 44.3848,-48.4863Q45.7031,-48.4863 63.1836,-49.4141L63.1836,-74.9023Q63.1836,-77.5879 62.0117,-78.8086Q61.377,-79.4922 61.377,-80.1758Q61.377,-81.5918 63.3789,-81.5918Q64.7949,-81.5918 66.9922,-80.8838Q69.1895,-80.1758 69.8975,-79.4922Q70.6055,-78.8086 70.6055,-77.2949L70.6055,-49.8047L85.4004,-50.5859Q88.7207,-50.8789 89.5996,-51.2451Q90.4785,-51.6113 91.0156,-51.6113Q91.6016,-51.6113 93.0176,-50.5859Q96.6797,-47.8027 96.6797,-45.8984Q96.6797,-44.2871 93.8965,-43.9941L70.6055,-42.6758L70.6055,7.17773Q70.6055,10.4004 68.2129,10.4004ZM24.2188,0.585938L23.6816,0.585938Q22.5098,0.585938 20.752,-0.463867Q18.9941,-1.51367 17.5537,-2.9541Q16.1133,-4.39453 16.0156,-5.32227Q16.0156,-6.29883 18.1641,-6.68945Q20.3125,-7.08008 22.8027,-8.00781L24.1211,-41.6992Q12.3047,-40.5762 11.084,-40.5762Q8.10547,-40.5762 6.20117,-42.7002Q4.29688,-44.8242 4.29688,-45.9961Q4.29688,-47.6074 5.61523,-47.6074Q8.20312,-47.2168 9.81445,-47.2168L28.1738,-49.1211Q29.1992,-49.1211 31.0547,-47.9004Q32.9102,-46.6797 32.9102,-45.4102Q32.9102,-43.9941 31.9824,-43.3105L31.4941,-42.6758L30.1758,-11.7188Q31.2012,-12.3047 36.7432,-16.3574Q42.2852,-20.4102 43.9941,-20.4102Q45.5078,-20.4102 45.5078,-19.1895Q45.5078,-18.4082 43.6523,-16.4551Q41.7969,-14.502 36.2061,-8.49609Q30.6152,-2.49023 28.0029,-1.00098Q25.3906,0.488281 24.2188,0.585938Z"></path><path transform="translate(500 100)" d="M46.582,-58.2031Q45.4102,-58.2031 42.7979,-61.8408Q40.1855,-65.4785 34.3262,-70.7031Q32.8125,-72.0215 32.8125,-73.2178Q32.8125,-74.4141 34.2041,-75.5615Q35.5957,-76.709 36.5234,-76.709Q37.3047,-76.709 39.917,-74.707Q42.5293,-72.7051 46.7285,-68.3105Q50.9277,-63.916 50.9277,-62.5Q50.9277,-60.8887 49.3164,-59.5459Q47.7051,-58.2031 46.582,-58.2031ZM53.2227,8.10547Q51.416,8.10547 48.2178,6.44531Q45.0195,4.78516 41.2109,0.585938Q37.4023,-3.61328 33.8867,-10.498Q27.2949,-3.51562 17.9199,2.58789Q9.42383,8.00781 7.42188,8.00781Q6.00586,8.00781 6.00586,6.88477Q6.00586,5.71289 7.61719,4.39453Q22.6074,-7.08008 30.8105,-16.7969Q26.5137,-25.6836 23.1934,-43.2129Q13.916,-41.6992 12.793,-41.6992Q10.1074,-41.6992 7.91016,-45.9961L7.71484,-46.6797Q7.71484,-48.0957 9.32617,-48.0957L10.0098,-48.0957Q12.207,-48.0957 22.2168,-49.707Q20.6055,-59.7168 20.2148,-72.4121Q20.1172,-75 18.2129,-76.416Q17.3828,-76.9043 17.3828,-77.6855Q17.3828,-78.8086 20.6055,-78.9062Q27.1973,-78.9062 27.1973,-75.293Q27.6855,-61.377 29.1016,-50.7812Q50.9277,-54.4922 51.9287,-54.9561Q52.9297,-55.4199 53.9062,-55.5176Q54.7852,-55.5176 56.0059,-54.5898Q58.6914,-52.4902 58.6914,-51.2207Q58.6914,-49.1211 55.6152,-48.6816L30.127,-44.2871Q31.7871,-35.0098 35.8887,-23.4863Q39.9902,-29.0039 42.3096,-33.8135Q44.6289,-38.623 44.6289,-39.9902L44.6289,-41.6992Q44.7266,-43.7988 46.2891,-43.9941Q46.9238,-43.9941 48.3887,-43.1152Q52.5879,-40.8203 52.5879,-37.8906Q52.4902,-37.1094 50.5859,-33.6914Q45.6055,-24.3164 38.916,-16.1133Q43.4082,-6.98242 50.8301,-0.78125Q50.9277,-0.683594 51.123,-0.683594Q52.5879,-0.683594 56.2012,-15.918Q56.8848,-20.5078 58.8867,-20.5078Q60.8887,-20.5078 60.8887,-16.4062Q60.3027,-5.81055 58.1055,2.29492Q57.4219,4.88281 56.3232,6.49414Q55.2246,8.10547 53.2227,8.10547ZM69.7266,-12.3047Q67.3828,-12.3047 65.7471,-13.7939Q64.1113,-15.2832 64.1113,-16.9922Q64.1113,-17.9199 64.4043,-19.165Q64.6973,-20.4102 64.9902,-56.8848Q64.9902,-59.082 63.8184,-61.084Q63.4277,-61.9141 63.4277,-62.3047Q63.4277,-63.7207 65.1855,-63.7207Q66.4062,-63.7207 68.6523,-62.915Q70.8984,-62.1094 71.46,-61.3037Q72.0215,-60.498 72.0215,-59.1797L71.9238,-14.9902Q71.9238,-12.3047 69.7266,-12.3047ZM85.1074,11.1816Q83.3984,11.1816 81.25,9.83887Q79.1016,8.49609 76.5625,6.54297Q74.0234,4.58984 71.8262,2.44141Q69.6289,0.292969 68.0664,-1.46484Q66.5039,-3.22266 66.5039,-4.00391Q66.5039,-5.17578 68.0176,-5.17578Q68.9941,-5.17578 73.5596,-2.83203Q78.125,-0.488281 82.4219,1.2207L82.4219,-74.8047Q82.4219,-76.8066 81.4697,-78.1982Q80.5176,-79.5898 80.5176,-80.5176Q80.5176,-81.6895 82.5195,-81.6895Q83.8867,-81.6895 86.3037,-80.7861Q88.7207,-79.8828 89.4043,-79.1504Q90.0879,-78.418 90.0879,-77.0996Q90.0879,1.9043 90.2832,5.32227Q90.2832,7.32422 88.5986,9.25293Q86.9141,11.1816 85.1074,11.1816Z"></path><path transform="translate(0 200)" d="M30.7129,1.70898Q28.6133,1.70898 26.4648,0.805664Q24.3164,-0.0976562 24.3164,-1.80664L24.5117,-10.6934L24.6094,-62.5977Q9.7168,-61.7188 7.8125,-61.5234Q5.46875,-61.084 4.29688,-60.9863Q2.49023,-60.9863 1.3916,-62.9883Q0.292969,-64.9902 0.292969,-66.8945Q0.292969,-69.0918 2.19727,-69.0918L9.27734,-68.8965Q49.4141,-71.0938 53.0762,-71.582Q54.8828,-71.582 55.8838,-69.5312Q56.8848,-67.4805 56.8848,-65.8203Q56.8848,-63.4766 55.0781,-63.4766L47.0703,-63.8184L32.8125,-62.9883Q32.9102,-10.5957 33.2031,-0Q33.2031,1.70898 30.7129,1.70898Z"></path><path transform="translate(58 200)" d="M48.1934,1.70898Q46.2891,1.70898 44.2383,0.854492Q42.1875,-0 42.1875,-1.70898Q42.3828,-3.41797 42.3828,-29.2969Q42.3828,-35.1074 40.8936,-38.4033Q39.4043,-41.6992 34.8145,-41.6992Q16.8945,-41.6992 16.6016,-16.2109L16.4062,-9.7168Q16.4062,-5.9082 16.6992,0.0976562Q16.6992,1.70898 14.4043,1.70898Q12.5,1.70898 10.4492,0.854492Q8.39844,-0 8.39844,-1.70898L8.59375,-11.5234Q8.59375,-58.9844 8.30078,-69.6777Q8.30078,-71.2891 10.6934,-71.2891Q12.5,-71.2891 14.5508,-70.4346Q16.6016,-69.5801 16.6016,-67.9199Q16.4062,-58.0078 16.4062,-39.7949Q18.6035,-43.3105 23.8525,-46.2158Q29.1016,-49.1211 34.4238,-49.1211Q43.9941,-49.1211 47.5098,-42.4805Q50.1953,-37.793 50.1953,-29.6875Q50.1953,-10.498 50.4883,0.0976562Q50.4883,1.70898 48.1934,1.70898Z"></path><path transform="translate(117 200)" d="M15.5273,-25.7812Q26.6113,-25.7812 36.0352,-28.418Q39.4043,-29.3945 40.3564,-30.542Q41.3086,-31.6895 41.3086,-34.082Q41.3086,-42.1875 31.8359,-42.1875Q25.1953,-42.1875 20.3613,-36.5967Q15.5273,-31.0059 14.3066,-25.7812L15.5273,-25.7812ZM24.4141,2.39258Q19.0918,2.39258 14.7949,-0.195312Q5.61523,-5.9082 5.61523,-20.6055Q3.51562,-22.2168 3.51562,-24.0967Q3.51562,-25.9766 6.00586,-25.9766L6.39648,-25.9766Q7.8125,-33.6914 15.0635,-41.4551Q22.3145,-49.2188 31.9336,-49.2188Q38.3301,-49.2188 42.1387,-46.9238Q49.1211,-42.8223 49.1211,-33.9844Q49.1211,-30.5176 48.5107,-28.3691Q47.9004,-26.2207 45.8008,-24.9023Q43.7012,-23.584 39.1113,-22.1191Q29.0039,-18.9941 13.3301,-18.9941Q13.3301,-12.3047 16.5283,-8.49609Q19.7266,-4.6875 25.0977,-4.6875Q37.4023,-4.6875 45.1172,-12.8906Q46.5332,-14.5996 47.8027,-14.5996Q49.4141,-14.5996 49.4141,-12.9883Q49.4141,-11.7188 47.9248,-9.30176Q46.4355,-6.88477 43.3105,-4.19922Q35.8398,2.39258 24.4141,2.39258Z"></path><path transform="translate(171 200)" d=""></path><path transform="translate(206 200)" d="M18.8965,-37.207Q35.4004,-38.2812 42.5537,-43.0908Q49.707,-47.9004 49.707,-54.1016Q49.707,-64.209 31.8359,-64.209Q24.8047,-64.209 18.2129,-62.3047L18.2129,-37.3047Q18.2129,-37.207 18.8965,-37.207ZM16.1133,1.70898Q14.1113,1.70898 11.9629,0.854492Q9.81445,-0 9.81445,-1.70898Q10.0098,-11.6211 10.0098,-61.1816Q8.74023,-61.1816 7.08008,-63.1836Q5.41992,-65.1855 5.41992,-66.6016Q5.41992,-68.2129 6.83594,-68.4082Q23.4375,-71.582 26.3672,-71.6309Q29.2969,-71.6797 32.0312,-71.6797Q58.1055,-71.6797 58.1055,-54.1992Q58.1055,-45.6055 52.4414,-40.2832Q42.9199,-31.3965 21.5332,-31.3965Q18.5059,-31.3965 18.2129,-31.4941Q18.2129,-11.5234 18.5059,0.0976562Q18.5059,1.70898 16.1133,1.70898Z"></path><path transform="translate(268 200)" d="M14.6973,1.61133Q12.793,1.61133 10.6934,0.756836Q8.59375,-0.0976562 8.59375,-1.80664L8.78906,-10.5957Q8.78906,-36.7188 8.49609,-47.4121Q8.49609,-49.0234 10.8887,-49.0234Q12.793,-49.0234 14.8926,-48.1689Q16.9922,-47.3145 16.9922,-45.8008Q16.9922,-43.6035 16.8945,-42.8223Q18.0176,-44.3848 21.4844,-46.6797Q25.293,-49.2188 29.5898,-49.2188Q33.7891,-49.2188 36.499,-48.1689Q39.209,-47.1191 40.9912,-45.6055Q42.7734,-44.0918 42.7734,-42.3828Q42.7734,-40.8203 41.4795,-38.8184Q40.1855,-36.8164 38.916,-36.8164Q37.5,-36.8164 36.7188,-38.0859Q35.791,-39.7949 33.7891,-40.6494Q31.7871,-41.5039 30.4199,-41.5039Q26.416,-41.5039 22.998,-39.0137Q18.0176,-35.4004 16.9922,-26.5137Q16.6016,-22.998 16.6016,-10.5957L17.0898,-0Q17.0898,1.61133 14.6973,1.61133Z"></path><path transform="translate(311 200)" d="M26.6602,-4.88281Q31.3965,-4.88281 35.083,-7.44629Q38.7695,-10.0098 41.0156,-14.4531Q43.2617,-18.8965 43.2617,-25.7812Q43.2617,-32.6172 40.1611,-37.3047Q37.0605,-41.9922 30.0781,-41.9922Q23.0957,-41.9922 17.9932,-35.3516Q12.8906,-28.7109 12.8906,-20.8008Q12.8906,-4.88281 26.6602,-4.88281ZM27.2949,2.39258Q16.3574,2.39258 10.6689,-3.85742Q4.98047,-10.1074 4.98047,-20.7031Q4.98047,-28.9062 10.0586,-37.6953Q12.0605,-41.4062 14.1602,-43.7012Q16.2598,-45.9961 17.6758,-45.9961Q18.9941,-45.9961 19.4824,-45.3125Q24.6582,-49.2188 30.8594,-49.2188Q37.0605,-49.2188 41.6016,-46.1914Q51.1719,-39.8926 51.1719,-24.5117Q51.1719,-14.1113 44.873,-6.20117Q38.0859,2.39258 27.2949,2.39258Z"></path><path transform="translate(367 200)" d="M10.2051,16.7969Q5.61523,16.7969 2.56348,15.1367Q-0.488281,13.4766 -0.488281,11.377Q-0.488281,9.61914 0.65918,7.8125Q1.80664,6.00586 3.19824,6.00586Q4.58984,6.00586 5.95703,7.71484Q7.32422,9.42383 10.4004,9.42383Q13.3301,9.42383 13.3301,3.07617Q13.3301,-36.377 12.9883,-47.5098Q12.9883,-49.1211 15.4297,-49.1211Q17.334,-49.1211 19.4336,-48.2666Q21.5332,-47.4121 21.5332,-45.7031Q21.2891,-36.377 21.2891,2.97852Q21.2891,10.791 17.1875,14.502Q14.7949,16.7969 10.2051,16.7969ZM17.627,-58.3984Q15.2344,-58.3984 13.5254,-60.5469Q11.8164,-62.6953 11.8164,-64.9902Q11.8164,-67.1875 13.208,-68.7988Q14.5996,-70.4102 17.0898,-70.4102Q19.5312,-70.4102 21.2158,-68.2129Q22.9004,-66.0156 22.9004,-63.8184Q22.9004,-61.5234 21.46,-59.9609Q20.0195,-58.3984 17.627,-58.3984Z"></path><path transform="translate(397 200)" d="M15.5273,-25.7812Q26.6113,-25.7812 36.0352,-28.418Q39.4043,-29.3945 40.3564,-30.542Q41.3086,-31.6895 41.3086,-34.082Q41.3086,-42.1875 31.8359,-42.1875Q25.1953,-42.1875 20.3613,-36.5967Q15.5273,-31.0059 14.3066,-25.7812L15.5273,-25.7812ZM24.4141,2.39258Q19.0918,2.39258 14.7949,-0.195312Q5.61523,-5.9082 5.61523,-20.6055Q3.51562,-22.2168 3.51562,-24.0967Q3.51562,-25.9766 6.00586,-25.9766L6.39648,-25.9766Q7.8125,-33.6914 15.0635,-41.4551Q22.3145,-49.2188 31.9336,-49.2188Q38.3301,-49.2188 42.1387,-46.9238Q49.1211,-42.8223 49.1211,-33.9844Q49.1211,-30.5176 48.5107,-28.3691Q47.9004,-26.2207 45.8008,-24.9023Q43.7012,-23.584 39.1113,-22.1191Q29.0039,-18.9941 13.3301,-18.9941Q13.3301,-12.3047 16.5283,-8.49609Q19.7266,-4.6875 25.0977,-4.6875Q37.4023,-4.6875 45.1172,-12.8906Q46.5332,-14.5996 47.8027,-14.5996Q49.4141,-14.5996 49.4141,-12.9883Q49.4141,-11.7188 47.9248,-9.30176Q46.4355,-6.88477 43.3105,-4.19922Q35.8398,2.39258 24.4141,2.39258Z"></path><path transform="translate(451 200)" d="M25,2.39258Q19.5801,2.39258 15.0391,-0.146484Q10.498,-2.68555 7.73926,-7.54395Q4.98047,-12.4023 4.98047,-18.9941Q4.98047,-25.4883 7.27539,-30.8838Q9.57031,-36.2793 13.3301,-40.3809Q17.0898,-44.4824 21.8262,-46.8506Q26.5625,-49.2188 31.1035,-49.2188Q35.498,-49.2188 38.3789,-47.998Q41.2598,-46.7773 43.0176,-45.1416Q44.7754,-43.5059 45.5811,-42.041Q46.3867,-40.5762 46.3867,-40.0879Q46.3867,-38.2812 44.6777,-36.5967Q42.9688,-34.9121 41.8945,-34.9121Q40.6738,-34.9121 40.1855,-35.6934Q38.2812,-39.502 37.1582,-40.1855Q34.375,-42.0898 31.4941,-42.0898Q25.3906,-42.0898 19.1895,-35.5957Q12.9883,-28.6133 12.9883,-19.9219Q12.9883,-14.8926 14.8926,-11.5234Q18.7012,-4.58984 25.6836,-4.58984Q35.0586,-4.58984 44.873,-14.4043Q46.582,-16.1133 47.6562,-16.1133Q49.1699,-16.1133 49.1699,-14.5996Q49.1699,-13.4766 47.7295,-10.8398Q46.2891,-8.20312 43.2617,-5.17578Q35.9863,2.39258 25,2.39258Z"></path><path transform="translate(504 200)" d="M20.3613,2.39258Q10.6934,2.39258 10.6934,-10.9863L10.6934,-41.7969L4.6875,-41.4062Q2.97852,-41.4062 1.92871,-43.1152Q0.878906,-44.8242 0.878906,-46.3867Q0.878906,-48.291 2.58789,-48.291L10.6934,-48.291Q10.6934,-55.6152 10.498,-63.4766Q10.498,-65.0879 12.8906,-65.0879Q14.7949,-65.0879 16.8457,-64.2334Q18.8965,-63.3789 18.8965,-61.7188Q18.7012,-55.1758 18.7012,-48.584Q23.291,-48.7793 28.4668,-49.3164Q30.1758,-49.3164 31.2744,-47.6074Q32.373,-45.8984 32.373,-44.2871Q32.373,-42.2852 30.6641,-42.2852Q25.8789,-42.2852 18.7012,-42.0898L18.7012,-10.791Q18.7012,-6.98242 19.2383,-6.0791Q19.7754,-5.17578 21.3867,-5.17578Q25.3906,-5.17578 30.5664,-9.17969Q32.4707,-10.5957 33.6914,-10.5957Q35.3027,-10.5957 35.3027,-8.98438Q35.3027,-6.5918 30.5664,-2.19727Q25.3906,2.39258 20.3613,2.39258Z"></path><path transform="translate(540 200)" d=""></path><path transform="translate(575 200)" d="M16.1133,1.51367Q14.1113,1.51367 11.9629,0.65918Q9.81445,-0.195312 9.81445,-1.9043Q10.0098,-10.791 10.0098,-33.9844Q9.0332,-34.6191 8.17871,-36.3525Q7.32422,-38.0859 7.32422,-39.3066Q7.32422,-41.0156 8.93555,-41.0156L10.0098,-40.8203L10.0098,-63.3789L9.61914,-68.5059Q9.61914,-70.5078 11.6211,-70.5078Q13.1348,-70.5078 15.1367,-69.9219L17.1387,-69.1895Q45.3125,-71.0938 48.8281,-71.4844Q51.416,-71.7773 52.6367,-71.7773Q54.0039,-71.7773 55.1758,-69.8486Q56.3477,-67.9199 56.3477,-66.1133Q56.3477,-63.916 54.4434,-63.916Q45.6055,-63.916 18.2129,-62.0117L18.2129,-40.918Q39.7461,-42.2852 43.3105,-42.6758Q45.9473,-43.0176 47.1191,-43.0176Q48.5352,-43.0176 49.6826,-41.0645Q50.8301,-39.1113 50.8301,-37.3047Q50.8301,-35.1074 48.9258,-35.1074Q40.4297,-35.1074 18.2129,-33.7891Q18.2129,-10.6934 18.5059,-0.0976562Q18.5059,1.51367 16.1133,1.51367Z"></path><path transform="translate(633 200)" d="M26.6602,-4.88281Q31.3965,-4.88281 35.083,-7.44629Q38.7695,-10.0098 41.0156,-14.4531Q43.2617,-18.8965 43.2617,-25.7812Q43.2617,-32.6172 40.1611,-37.3047Q37.0605,-41.9922 30.0781,-41.9922Q23.0957,-41.9922 17.9932,-35.3516Q12.8906,-28.7109 12.8906,-20.8008Q12.8906,-4.88281 26.6602,-4.88281ZM27.2949,2.39258Q16.3574,2.39258 10.6689,-3.85742Q4.98047,-10.1074 4.98047,-20.7031Q4.98047,-28.9062 10.0586,-37.6953Q12.0605,-41.4062 14.1602,-43.7012Q16.2598,-45.9961 17.6758,-45.9961Q18.9941,-45.9961 19.4824,-45.3125Q24.6582,-49.2188 30.8594,-49.2188Q37.0605,-49.2188 41.6016,-46.1914Q51.1719,-39.8926 51.1719,-24.5117Q51.1719,-14.1113 44.873,-6.20117Q38.0859,2.39258 27.2949,2.39258Z"></path><path transform="translate(689 200)" d="M14.6973,1.61133Q12.793,1.61133 10.6934,0.756836Q8.59375,-0.0976562 8.59375,-1.80664L8.78906,-10.5957Q8.78906,-36.7188 8.49609,-47.4121Q8.49609,-49.0234 10.8887,-49.0234Q12.793,-49.0234 14.8926,-48.1689Q16.9922,-47.3145 16.9922,-45.8008Q16.9922,-43.6035 16.8945,-42.8223Q18.0176,-44.3848 21.4844,-46.6797Q25.293,-49.2188 29.5898,-49.2188Q33.7891,-49.2188 36.499,-48.1689Q39.209,-47.1191 40.9912,-45.6055Q42.7734,-44.0918 42.7734,-42.3828Q42.7734,-40.8203 41.4795,-38.8184Q40.1855,-36.8164 38.916,-36.8164Q37.5,-36.8164 36.7188,-38.0859Q35.791,-39.7949 33.7891,-40.6494Q31.7871,-41.5039 30.4199,-41.5039Q26.416,-41.5039 22.998,-39.0137Q18.0176,-35.4004 16.9922,-26.5137Q16.6016,-22.998 16.6016,-10.5957L17.0898,-0Q17.0898,1.61133 14.6973,1.61133Z"></path><path transform="translate(732 200)" d=""></path><path transform="translate(767 200)" d="M64.0137,2.39258Q61.6699,2.39258 59.6436,0.634766Q57.6172,-1.12305 56.6895,-4.49219Q48.9746,-37.6953 43.8965,-56.0059Q41.1133,-47.0215 36.7432,-31.3721Q32.373,-15.7227 31.0303,-10.9619Q29.6875,-6.20117 29.2969,-4.39453Q28.9062,-2.58789 28.0518,-0.146484Q27.1973,2.29492 25,2.29492Q22.9004,2.29492 20.9473,0.537109Q18.9941,-1.2207 18.1152,-4.49219Q5.61523,-56.0059 0.488281,-68.1152Q0.292969,-68.5059 0.292969,-68.8965Q0.292969,-71.0938 4.88281,-71.0938Q9.27734,-71.0938 9.8877,-68.5547Q10.498,-66.0156 11.1816,-63.3789Q17.5781,-41.6016 23.584,-12.6953Q26.5137,-24.707 30.2979,-37.5977Q34.082,-50.4883 36.1328,-57.4951Q38.1836,-64.502 38.2812,-67.041Q38.3789,-69.5801 42.6758,-69.5801Q44.5801,-69.5801 46.5332,-68.8965Q48.4863,-68.2129 48.6816,-66.8457Q48.877,-65.4785 49.9268,-62.085Q50.9766,-58.6914 55.3467,-42.1387Q59.7168,-25.5859 62.5977,-12.4023Q70.1172,-39.8926 73.7549,-51.8555Q77.3926,-63.8184 79.0039,-70.3125Q79.4922,-71.6797 81.2988,-71.6797Q82.7148,-71.6797 84.1797,-71.1914Q87.9883,-69.5801 87.9883,-67.2852Q87.9883,-66.8945 87.4023,-65.3809Q82.4707,-53.9062 68.8965,-7.71484L67.1875,-0.585938Q66.5039,2.39258 64.0137,2.39258Z"></path><path transform="translate(855 200)" d="M15.5273,-25.7812Q26.6113,-25.7812 36.0352,-28.418Q39.4043,-29.3945 40.3564,-30.542Q41.3086,-31.6895 41.3086,-34.082Q41.3086,-42.1875 31.8359,-42.1875Q25.1953,-42.1875 20.3613,-36.5967Q15.5273,-31.0059 14.3066,-25.7812L15.5273,-25.7812ZM24.4141,2.39258Q19.0918,2.39258 14.7949,-0.195312Q5.61523,-5.9082 5.61523,-20.6055Q3.51562,-22.2168 3.51562,-24.0967Q3.51562,-25.9766 6.00586,-25.9766L6.39648,-25.9766Q7.8125,-33.6914 15.0635,-41.4551Q22.3145,-49.2188 31.9336,-49.2188Q38.3301,-49.2188 42.1387,-46.9238Q49.1211,-42.8223 49.1211,-33.9844Q49.1211,-30.5176 48.5107,-28.3691Q47.9004,-26.2207 45.8008,-24.9023Q43.7012,-23.584 39.1113,-22.1191Q29.0039,-18.9941 13.3301,-18.9941Q13.3301,-12.3047 16.5283,-8.49609Q19.7266,-4.6875 25.0977,-4.6875Q37.4023,-4.6875 45.1172,-12.8906Q46.5332,-14.5996 47.8027,-14.5996Q49.4141,-14.5996 49.4141,-12.9883Q49.4141,-11.7188 47.9248,-9.30176Q46.4355,-6.88477 43.3105,-4.19922Q35.8398,2.39258 24.4141,2.39258Z"></path><path transform="translate(909 200)" d="M27.5146,-4.6875Q33.1055,-4.6875 38.6963,-10.8887Q44.2871,-17.0898 44.2871,-27.1973Q44.2871,-41.9922 33.7891,-41.9922Q30.6152,-41.9922 26.9531,-39.8438Q23.291,-37.6953 20.1904,-33.2031Q17.0898,-28.7109 16.5039,-20.8984Q16.2109,-16.6992 16.2109,-11.084L16.1133,-10.9863Q16.1133,-10.8887 16.3086,-10.8887Q17.7246,-10.8887 19.3848,-8.39844Q21.9238,-4.6875 27.5146,-4.6875ZM27.1973,2.29492Q23.0957,2.29492 19.9463,0.488281Q16.7969,-1.31836 15.8203,-2.68555L15.8203,-2.97852L15.7227,-2.09961Q15.4785,-1.2207 13.8428,-0.0488281Q12.207,1.12305 10.6934,1.12305Q8.39844,1.12305 8.39844,-1.51367L8.59375,-10.5957Q8.59375,-59.2773 8.30078,-69.9219Q8.30078,-71.4844 10.6934,-71.4844Q12.5977,-71.4844 14.6973,-70.6543Q16.7969,-69.8242 16.7969,-68.1152L16.4062,-59.1797L16.4062,-39.1113Q19.3848,-44.1895 24.1943,-46.7041Q29.0039,-49.2188 34.6191,-49.2188Q42.3828,-49.2188 47.3389,-43.7012Q52.2949,-38.1836 52.2949,-28.7109Q52.2949,-19.2871 48.9502,-12.4512Q45.6055,-5.61523 39.8926,-1.66016Q34.1797,2.29492 27.1973,2.29492Z"></path></svg>